# AST/ASF file generated using VICON BodyLanguage
# -----------------------------------------------
:version 1.10
:name VICON
:units
  mass 1.0
  length 0.45
  angle deg
:documentation
   .ast/.asf automatically generated from VICON data using
   VICON BodyBuilder and BodyLanguage model FoxedUp or BRILLIANT.MOD
:root
   order TX TY TZ RX RY RZ
   axis XYZ
   position 0 0 0  
   orientation 0 0 0 
:bonedata
  begin
     id 1 
     name lhipjoint
     direction 0.690799 -0.707083 0.151096 
     length 2.54797 
     axis 0 0 0  XYZ
  end
  begin
     id 2 
     name lfemur
     direction 0.34202 -0.939693 0  
     length 7.21646  
     axis 0 0 20  XYZ
    dof rx ry rz
    limits (-160.0 20.0)
           (-70.0 70.0)
           (-60.0 70.0)
  end
  begin
     id 3 
     name ltibia
     direction 0.34202 -0.939693 0   
     length 8.16759   
     axis 0 0 20   XYZ
    dof rx
    limits (-10.0 170.0)
  end
  begin
     id 4 
     name lfoot
     direction 0.0487203 -0.133858 0.989802   
     length 1.93375   
     axis -90 7.62852e-016 20   XYZ
    dof rx rz
    limits (-45.0 90.0)
           (-70.0 20.0)
  end
  begin
     id 5 
     name ltoes
     direction 1.53453e-011 -4.21783e-011 1   
     length 0.979747   
     axis -90 7.62852e-016 20   XYZ
    dof rx
    limits (-90.0 20.0)
  end
  begin
     id 6 
     name rhipjoint
     direction -0.694693 -0.703425 0.150315   
     length 2.56122  
     axis 0 0 0  XYZ 
  end
  begin
     id 7 
     name rfemur
     direction -0.34202 -0.939693 0   
     length 7.36786   
     axis 0 0 -20   XYZ
    dof rx ry rz
    limits (-160.0 20.0)
           (-70.0 70.0)
           (-70.0 60.0)
  end
  begin
     id 8 
     name rtibia
     direction -0.34202 -0.939693 0   
     length 8.07288   
     axis 0 0 -20   XYZ
    dof rx
    limits (-10.0 170.0)
 end
 begin
     id 9 
     name rfoot
     direction -0.0428397 -0.117701 0.992125   
     length 1.88295  
     axis -90 -7.62852e-016 -20   XYZ
    dof rx rz
    limits (-45.0 90.0)
           (-20.0 70.0)
  end
  begin
     id 10 
     name rtoes
     direction -1.53456e-011 -4.2187e-011 1   
     length 0.955578   
     axis -90 -7.62852e-016 -20   XYZ
    dof rx
    limits (-90.0 20.0)
  end
  begin
     id 11 
     name lowerback
     direction 0.0288145 0.999398 -0.0193241   
     length 1.92149   
     axis 0 0 0   XYZ
    dof rx ry rz
    limits (-20.0 45.0)
           (-30.0 30.0)
           (-30.0 30.0)
  end
  begin
     id 12 
     name upperback
     direction 0.0233784 0.998099 0.0570278   
     length 1.90435   
     axis 0 0 0   XYZ
    dof rx ry rz
    limits (-20.0 45.0)
           (-30.0 30.0)
           (-30.0 30.0)
  end
  begin
     id 13 
     name thorax
     direction 0.0096694 0.997833 0.0650817   
     length 1.9111   
     axis 0 0 0   XYZ
    dof rx ry rz
    limits (-20.0 45.0)
           (-30.0 30.0)
           (-30.0 30.0)
  end
  begin
     id 14 
     name lowerneck
     direction 0.00516803 0.999916 0.0118722   
     length 1.74664   
     axis 0 0 0   XYZ
    dof rx ry rz
    limits (-20.0 45.0)
           (-30.0 30.0)
           (-30.0 30.0)
  end
  begin
     id 15 
     name upperneck
     direction -0.0510851 0.996117 -0.071696   
     length 1.68498   
     axis 0 0 0   XYZ
    dof rx ry rz
    limits (-20.0 45.0)
           (-30.0 30.0)
           (-30.0 30.0)
  end
  begin
     id 16
     name head
     direction -0.019188 0.999436 -0.0275702  
     length 1.83483  
     axis 0 0 0   XYZ
    dof rx ry rz
    limits (-20.0 45.0)
           (-30.0 30.0)
           (-30.0 30.0)
  end
  begin
     id 17 
     name lclavicle
     direction 0.967006 0.248456 -0.0562957  
     length 3.39395  
     axis 0 0 0   XYZ
    dof ry rz
    limits (-20.0 10.0)
           (0.0 20.0)
  end
  begin
     id 18 
     name lhumerus
     direction 1 -4.48962e-011 -5.62711e-019   
     length 5.24318   
     axis 180 -30 -90   XYZ
    dof rx ry rz
    limits (-60.0 90.0)
           (-90.0 90.0)
           (-90.0 90.0)
  end
  begin
     id 19
     name lradius
     direction 1 -4.48966e-011 7.90625e-027   
     length 2.98999   
     axis 180 -30 -90   XYZ
    dof rx
    limits (-10.0 170.0)
  end
  begin
     id 20
     name lwrist
     direction 1 -4.48959e-011 1.61068e-026   
     length 1.49499   
     axis -9.31229e-015 90 90   XYZ
    dof ry
    limits (-180.0 0.0)
 end
  begin
     id 21 
     name lhand
     direction 1 -4.49017e-011 3.22136e-026   
     length 0.726745   
     axis -2.0555e-014 90 90   XYZ
    dof rx rz
    limits (-90.0 90.0)
           (-45.0 45.0)
  end
  begin
     id 22 
     name lfingers
     direction 1 -4.4898e-011 6.44272e-026   
     length 0.58592   
     axis -4.11101e-014 90 90   XYZ
    dof rx
    limits (0.0 90.0)
  end
  begin
     id 23
     name lthumb
     direction 0.707107 -6.34922e-011 0.707107   
     length 0.841268   
     axis -90 45 2.85299e-015   XYZ
    dof rx rz
    limits (-45.0 45.0)
           (-45.0 45.0)
  end
  begin
     id 24 
     name rclavicle
     direction -0.972232 0.230238 0.0419005   
     length 3.40416  
     axis 0 0 0   XYZ 
    dof ry rz
    limits (-10.0 20.0)
           (-20.0 0.0)
  end
  begin
     id 25 
     name rhumerus
     direction -1 -4.48976e-011 2.48487e-027  
     length 5.37045   
     axis 180 30 90   XYZ
    dof rx ry rz
    limits (-90.0 60.0)
           (-90.0 90.0)
           (-90.0 90.0)
  end
  begin
     id 26 
     name rradius
     direction -1 -4.48942e-011 7.87951e-027   
     length 2.92792   
     axis 180 30 90   XYZ
    dof rx
    limits (-10.0 170.0)
  end
  begin
     id 27 
     name rwrist
     direction -1 -4.48969e-011 1.61068e-026   
     length 1.46396   
     axis -9.31229e-015 -90 -90   XYZ
    dof ry
    limits (-180.0 0.0)
  end
  begin
     id 28
     name rhand
     direction -1 -4.49043e-011 3.22136e-026   
     length 0.784497   
     axis -2.0555e-014 -90 -90   XYZ
    dof rx rz
    limits (-90.0 90.0)
           (-45.0 45.0)
  end
  begin
     id 29
     name rfingers
     direction -1 -4.48823e-011 6.44272e-026   
     length 0.632482   
     axis -4.11101e-014 -90 -90   XYZ
    dof rx
    limits (0.0 90.0)
  end
  begin
     id 30
     name rthumb
     direction -0.707107 -6.34923e-011 0.707107   
     length 0.908121   
     axis -90 -45 -2.85299e-015   XYZ
    dof rx rz
    limits (-45.0 45.0)
           (-45.0 45.0)
  end
:hierarchy
  begin
    root lhipjoint rhipjoint lowerback
    lhipjoint lfemur
    lfemur ltibia
    ltibia lfoot
    lfoot ltoes
    rhipjoint rfemur
    rfemur rtibia
    rtibia rfoot
    rfoot rtoes
    lowerback upperback
    upperback thorax
    thorax lowerneck lclavicle rclavicle
    lowerneck upperneck
    upperneck head
    lclavicle lhumerus
    lhumerus lradius
    lradius lwrist
    lwrist lhand lthumb
    lhand lfingers
    rclavicle rhumerus
    rhumerus rradius
    rradius rwrist
    rwrist rhand rthumb
    rhand rfingers
  end

#!OML:ASF E:\Style6\Style6.ASF
:FULLY-SPECIFIED
:DEGREES
578
root -0.346801 17.1191 0.454962 -4.52905 3.62422 -4.87766
lowerback 2.45695 3.13727 3.25198
upperback 0.205419 4.28744 1.29237
thorax -1.02487 2.13069 -0.627246
lowerneck -4.81285 -2.14071 0.902485
upperneck 17.4694 -0.753683 -13.2231
head 5.9875 -1.24919 -4.41901
rclavicle -1.47846e-015 1.0138e-014
rhumerus 20.6934 54.6765 -80.3028
rradius 61.7329
rwrist -53.1991
rhand -50.2568 -15.0981
rfingers 7.12502
rthumb -22.8355 -43.7662
lclavicle -1.47846e-015 1.0138e-014
lhumerus 26.9678 -54.4378 44.8051
lradius 63.4525
lwrist 24.8886
lhand -28.0859 29.6309
lfingers 7.12502
lthumb -1.46889 59.6056
rfemur -14.3208 -10.7792 24.5489
rtibia 43.1987
rfoot -16.7394 4.0515
rtoes 2.20937
lfemur -15.7243 -1.15384 -9.57486
ltibia 46.4394
lfoot -20.4416 2.62251
ltoes -31.4005
579
root -0.350045 17.1238 0.467792 -4.54672 3.67783 -4.91869
lowerback 2.41492 3.18193 3.40621
upperback 0.203714 4.34881 1.26628
thorax -0.987588 2.16113 -0.737915
lowerneck -4.78482 -2.19574 0.946815
upperneck 17.4655 -0.822495 -13.2992
head 5.97452 -1.28366 -4.45468
rclavicle 2.91592e-014 9.54166e-015
rhumerus 20.4376 55.2674 -80.2548
rradius 62.7589
rwrist -54.0016
rhand -50.4254 -14.6654
rfingers 7.12502
rthumb -22.9973 -43.3135
lclavicle 2.91592e-014 9.54166e-015
lhumerus 26.178 -54.7025 44.6183
lradius 64.7561
lwrist 25.0528
lhand -28.2984 30.1309
lfingers 7.12502
lthumb -1.67411 60.1041
rfemur -14.1972 -10.7625 24.6076
rtibia 43.0955
rfoot -16.7935 3.86895
rtoes 1.35157
lfemur -15.6282 -1.15312 -9.50615
ltibia 46.3429
lfoot -20.4798 2.49911
ltoes -31.1959
580
root -0.351928 17.128 0.482172 -4.54767 3.63303 -4.88834
lowerback 2.32151 3.26138 3.50978
upperback 0.2354 4.45124 1.21032
thorax -0.886724 2.21367 -0.847265
lowerneck -4.79612 -2.23827 1.03376
upperneck 17.4269 -0.879619 -13.389
head 5.95769 -1.31078 -4.50098
rclavicle 6.20332e-014 -5.96354e-016
rhumerus 20.2904 55.8544 -80.1711
rradius 63.7629
rwrist -54.6767
rhand -50.5158 -14.6924
rfingers 7.12502
rthumb -23.0841 -43.3297
lclavicle 6.20332e-014 -5.96354e-016
lhumerus 25.3893 -54.921 44.4705
lradius 66.0258
lwrist 25.2714
lhand -28.5928 30.6518
lfingers 7.12502
lthumb -1.95845 60.6226
rfemur -14.0941 -10.6403 24.5885
rtibia 43.0002
rfoot -16.7781 3.8532
rtoes 1.80455
lfemur -15.4991 -1.0809 -9.52219
ltibia 46.2204
lfoot -20.4724 2.4478
ltoes -31.2018
581
root -0.351806 17.1339 0.498061 -4.46039 3.63129 -4.80311
lowerback 2.16088 3.35853 3.5741
upperback 0.208826 4.57428 1.11298
thorax -0.806332 2.2758 -0.974956
lowerneck -4.75412 -2.29313 1.0832
upperneck 17.4042 -0.965502 -13.3789
head 5.93537 -1.34588 -4.5094
rclavicle 4.09745e-014 -9.54166e-015
rhumerus 20.1023 56.557 -80.071
rradius 64.7828
rwrist -54.8698
rhand -50.8913 -15.6749
rfingers 7.12502
rthumb -23.4443 -44.2667
lclavicle 4.09745e-014 -9.54166e-015
lhumerus 24.6139 -55.114 44.3692
lradius 67.2596
lwrist 25.9121
lhand -28.4935 30.7174
lfingers 7.12502
lthumb -1.8625 60.689
rfemur -14.0626 -10.5992 24.5004
rtibia 42.9144
rfoot -16.794 3.88045
rtoes 2.06639
lfemur -15.4507 -1.06539 -9.62229
ltibia 46.0905
lfoot -20.4522 2.42007
ltoes -31.0045
582
root -0.353007 17.1393 0.510883 -4.42836 3.73147 -4.68219
lowerback 2.0997 3.42311 3.56948
upperback 0.175246 4.65741 1.02924
thorax -0.796471 2.31705 -1.05654
lowerneck -4.67962 -2.37007 1.0381
upperneck 17.3975 -1.07617 -13.3313
head 5.91236 -1.39585 -4.49078
rclavicle 4.71741e-014 1.51076e-014
rhumerus 19.67 57.1233 -80.2466
rradius 65.7696
rwrist -54.9598
rhand -51.219 -16.3448
rfingers 7.12502
rthumb -23.7586 -44.8961
lclavicle 4.71741e-014 1.51076e-014
lhumerus 23.856 -55.3218 44.3223
lradius 68.5251
lwrist 26.5637
lhand -28.534 31.6441
lfingers 7.12502
lthumb -1.90166 61.6153
rfemur -14.0081 -10.6461 24.3597
rtibia 42.8681
rfoot -16.8238 3.81467
rtoes 1.85637
lfemur -15.3844 -1.142 -9.76739
ltibia 45.966
lfoot -20.4437 2.43505
ltoes -31.0134
583
root -0.35461 17.1421 0.519693 -4.46151 3.92796 -4.60684
lowerback 2.11951 3.41715 3.59264
upperback 0.177504 4.65029 0.977856
thorax -0.799426 2.31331 -1.12274
lowerneck -4.63344 -2.40841 0.970874
upperneck 17.3628 -1.12883 -13.3123
head 5.8905 -1.42115 -4.47404
rclavicle -3.87754e-014 -1.19271e-014
rhumerus 19.2329 57.6345 -80.5363
rradius 66.7033
rwrist -55.274
rhand -51.3693 -16.5105
rfingers 7.12502
rthumb -23.9028 -45.043
lclavicle -3.87754e-014 -1.19271e-014
lhumerus 22.9503 -55.4843 44.3351
lradius 69.8334
lwrist 26.9067
lhand -28.8098 33.2296
lfingers 7.12502
lthumb -2.16806 63.1984
rfemur -13.9121 -10.7758 24.2583
rtibia 42.8416
rfoot -16.8972 3.66885
rtoes 1.29267
lfemur -15.3105 -1.30393 -9.86578
ltibia 45.867
lfoot -20.4466 2.3982
ltoes -30.8654
584
root -0.357544 17.1434 0.526043 -4.46755 4.08478 -4.54582
lowerback 2.1328 3.40982 3.61982
upperback 0.163534 4.64175 0.939491
thorax -0.816255 2.30845 -1.17809
lowerneck -4.54233 -2.43428 0.921682
upperneck 17.3213 -1.15726 -13.3601
head 5.85947 -1.43644 -4.47966
rclavicle 7.95387e-014 1.07344e-014
rhumerus 19.0446 58.6191 -80.472
rradius 68.0693
rwrist -57.2369
rhand -52.9761 -14.9659
rfingers 7.12502
rthumb -25.4428 -43.2878
lclavicle 7.95387e-014 1.07344e-014
lhumerus 21.8997 -55.6059 44.4353
lradius 71.0471
lwrist 27.235
lhand -28.8762 33.5518
lfingers 7.12502
lthumb -2.23215 63.5199
rfemur -13.8683 -10.8386 24.194
rtibia 42.808
rfoot -16.9526 3.53339
rtoes 0.510377
lfemur -15.2781 -1.44237 -9.94199
ltibia 45.7845
lfoot -20.4005 2.28045
ltoes -30.3376
585
root -0.361054 17.146 0.535395 -4.44001 4.07914 -4.46554
lowerback 2.10073 3.46449 3.63298
upperback 0.11619 4.71439 0.90634
thorax -0.839747 2.3437 -1.22022
lowerneck -4.39898 -2.45465 0.799138
upperneck 17.3392 -1.17395 -13.3509
head 5.84058 -1.447 -4.45446
rclavicle -4.37326e-015 -1.13307e-014
rhumerus 18.6943 59.191 -80.7125
rradius 68.5843
rwrist -57.0037
rhand -52.7725 -15.1491
rfingers 7.12502
rthumb -25.2478 -43.4986
lclavicle -4.37326e-015 -1.13307e-014
lhumerus 20.5862 -55.6679 44.8957
lradius 72.0689
lwrist 27.2153
lhand -28.8661 33.4275
lfingers 7.12502
lthumb -2.22242 63.3957
rfemur -13.8269 -10.7439 24.1352
rtibia 42.7535
rfoot -16.9911 3.47591
rtoes 0.543429
lfemur -15.193 -1.44167 -10.0177
ltibia 45.6969
lfoot -20.3873 2.18014
ltoes -29.9365
586
root -0.360822 17.1527 0.551061 -4.44908 3.90853 -4.48915
lowerback 2.01691 3.56123 3.86363
upperback 0.108362 4.84424 0.870171
thorax -0.772704 2.40871 -1.38064
lowerneck -4.30976 -2.46186 0.691779
upperneck 17.3796 -1.17319 -13.3248
head 5.83968 -1.44972 -4.42725
rclavicle -3.69739e-014 -2.98177e-015
rhumerus 18.4039 59.569 -81.0448
rradius 68.55
rwrist -55.2876
rhand -51.6087 -16.2982
rfingers 7.12502
rthumb -24.1324 -44.8003
lclavicle -3.69739e-014 -2.98177e-015
lhumerus 19.1619 -55.6566 45.4184
lradius 73.1944
lwrist 27.2089
lhand -28.8733 33.7662
lfingers 7.12502
lthumb -2.22938 63.7343
rfemur -13.7148 -10.5434 24.1848
rtibia 42.6627
rfoot -17.0328 3.35296
rtoes -0.177497
lfemur -14.9856 -1.31635 -9.97267
ltibia 45.588
lfoot -20.4158 2.20265
ltoes -30.0431
587
root -0.361106 17.1591 0.566403 -4.44044 3.75334 -4.48214
lowerback 1.88739 3.63875 4.00963
upperback 0.154225 4.9424 0.843329
thorax -0.63346 2.46043 -1.47835
lowerneck -4.31476 -2.46482 0.628861
upperneck 17.3442 -1.16671 -13.3657
head 5.83081 -1.45194 -4.42842
rclavicle 1.68967e-014 -4.96962e-015
rhumerus 18.4992 60.2837 -80.9752
rradius 68.8884
rwrist -54.3869
rhand -51.435 -16.9487
rfingers 7.12502
rthumb -23.9658 -45.4729
lclavicle 1.68967e-014 -4.96962e-015
lhumerus 17.8822 -55.5817 45.6939
lradius 74.5403
lwrist 27.6934
lhand -28.5656 34.148
lfingers 7.12502
lthumb -1.93221 64.119
rfemur -13.6213 -10.3604 24.2044
rtibia 42.5625
rfoot -17.0843 3.21459
rtoes -0.831575
lfemur -14.8434 -1.20143 -9.96783
ltibia 45.4432
lfoot -20.4064 2.2309
ltoes -30.0446
588
root -0.361157 17.1643 0.579088 -4.38072 3.68268 -4.48882
lowerback 1.7656 3.68987 4.12866
upperback 0.165935 5.00597 0.824616
thorax -0.538059 2.49386 -1.55411
lowerneck -4.29724 -2.48913 0.625548
upperneck 17.2659 -1.19122 -13.4729
head 5.80032 -1.46765 -4.46117
rclavicle -3.87754e-014 -1.39149e-015
rhumerus 18.5935 61.1325 -80.8621
rradius 69.6409
rwrist -54.6115
rhand -51.6799 -17.3327
rfingers 7.12502
rthumb -24.2006 -45.8258
lclavicle -3.87754e-014 -1.39149e-015
lhumerus 16.685 -55.6737 45.8556
lradius 75.8634
lwrist 28.385
lhand -28.7427 34.6609
lfingers 7.12502
lthumb -2.10324 64.6303
rfemur -13.596 -10.254 24.2349
rtibia 42.4789
rfoot -17.0944 3.1562
rtoes -0.719452
lfemur -14.7933 -1.12082 -9.955
ltibia 45.2937
lfoot -20.4215 2.20398
ltoes -29.73
589
root -0.360244 17.1689 0.591971 -4.38132 3.62644 -4.4111
lowerback 1.73922 3.74773 4.20486
upperback 0.167084 5.08253 0.764918
thorax -0.505774 2.53257 -1.65545
lowerneck -4.22107 -2.52442 0.615587
upperneck 17.1743 -1.24173 -13.5308
head 5.75381 -1.4904 -4.4765
rclavicle 7.61966e-014 4.77083e-015
rhumerus 18.5418 61.8878 -80.8807
rradius 70.6117
rwrist -55.6793
rhand -51.8842 -17.1596
rfingers 7.12502
rthumb -24.3965 -45.6264
lclavicle 7.61966e-014 4.77083e-015
lhumerus 15.2235 -55.7642 46.3258
lradius 77.1872
lwrist 29.0445
lhand -29.0667 34.9564
lfingers 7.12502
lthumb -2.41614 64.9225
rfemur -13.4991 -10.1275 24.1428
rtibia 42.4285
rfoot -17.0983 3.30893
rtoes 0.529416
lfemur -14.6296 -1.12626 -10.0529
ltibia 45.134
lfoot -20.4359 2.27789
ltoes -29.614
590
root -0.359196 17.1688 0.602782 -4.36319 3.55102 -4.22582
lowerback 1.69759 3.81838 4.16782
upperback 0.188151 5.17246 0.676799
thorax -0.450648 2.57899 -1.72147
lowerneck -4.15542 -2.55082 0.593322
upperneck 17.0699 -1.28581 -13.5522
head 5.70632 -1.50811 -4.47731
rclavicle 1.48095e-014 9.54166e-015
rhumerus 18.6947 62.6672 -80.6943
rradius 71.6388
rwrist -57.1358
rhand -52.5269 -16.2165
rfingers 7.12502
rthumb -25.0125 -44.599
lclavicle 1.48095e-014 9.54166e-015
lhumerus 13.5699 -55.6265 47.0475
lradius 78.5633
lwrist 29.611
lhand -28.7216 35.2258
lfingers 7.12502
lthumb -2.08283 65.1954
rfemur -13.4649 -10.006 23.9401
rtibia 42.4177
rfoot -17.1032 3.47334
rtoes 1.55632
lfemur -14.4861 -1.14784 -10.2703
ltibia 44.9733
lfoot -20.3769 2.31361
ltoes -29.4695
591
root -0.356501 17.1725 0.617692 -4.2722 3.44703 -4.04069
lowerback 1.56001 3.90856 4.14252
upperback 0.170618 5.28499 0.592901
thorax -0.379373 2.63646 -1.78397
lowerneck -4.05975 -2.5683 0.525069
upperneck 17.0306 -1.30965 -13.5498
head 5.67658 -1.51858 -4.46303
rclavicle -2.13694e-014 -1.59028e-014
rhumerus 18.7127 63.465 -80.6731
rradius 72.5637
rwrist -58.1224
rhand -53.2474 -15.5452
rfingers 7.12502
rthumb -25.7027 -43.8298
lclavicle -2.13694e-014 -1.59028e-014
lhumerus 12.0096 -55.6464 47.6684
lradius 79.9932
lwrist 30.2696
lhand -28.7608 35.8266
lfingers 7.12502
lthumb -2.12067 65.7958
rfemur -13.5081 -9.9017 23.7458
rtibia 42.4297
rfoot -17.1227 3.47857
rtoes 1.54035
lfemur -14.3907 -1.12672 -10.5013
ltibia 44.8089
lfoot -20.3457 2.325
ltoes -28.9251
